<?xml version="1.0" encoding="UTF-8"?>
<svg version="1.1" xmlns="http://www.w3.org/2000/svg" width="512" height="512">
<path d="M0 0 C7.36666498 4.45757037 13.2595517 10.9893194 19.28125 17.05419922 C20.39528628 18.16880058 21.509765 19.28295987 22.62464905 20.39671326 C25.63063893 23.40213244 28.6304489 26.41365072 31.62913895 29.42635107 C34.77120899 32.58097584 37.91899403 35.72988774 41.06616211 38.87942505 C47.01626153 44.83572534 52.96124693 50.79710265 58.90438557 56.76034749 C65.67435171 63.55271607 72.45003954 70.3393648 79.2262001 77.12555289 C93.15714968 91.07737292 107.08094348 105.03631549 121 119 C124.68326522 117.45418292 127.01702493 115.22486008 129.81994629 112.40710449 C130.29015025 111.93719825 130.7603542 111.46729201 131.24480677 110.98314619 C132.81708524 109.40948024 134.3821015 107.8287865 135.94726562 106.24804688 C137.07391102 105.11756267 138.20101299 103.98753332 139.32853699 102.85792542 C141.75463252 100.42550904 144.17758601 97.99002016 146.59819031 95.55213928 C150.42509882 91.69819573 154.25961531 87.85188332 158.09533691 84.00671387 C166.23614616 75.84369991 174.36849515 67.6722809 182.5 59.5 C191.27830528 50.67767523 200.05802533 41.856788 208.84753752 33.04562616 C212.66107516 29.22211615 216.46968072 25.39377987 220.2746048 21.56169891 C222.64146298 19.17993355 225.01244699 16.80230861 227.3845768 14.4257946 C228.48443907 13.32218477 229.58256927 12.21684565 230.67883873 11.10966682 C232.17466273 9.59942727 233.6765316 8.09546563 235.18005371 6.59289551 C236.01922081 5.74928719 236.85838791 4.90567886 237.72298431 4.03650665 C242.40077439 -0.14719338 246.1812816 -0.44304194 252.30859375 -0.3125 C257.47830222 0.28775643 260.00970445 2.90546281 263.375 6.625 C265.52407991 11.08847366 266.00958976 15.13021409 265 20 C262.3423202 24.39839875 259.24370506 28.04324448 255.6105957 31.64337158 C255.07913846 32.17794881 254.54768122 32.71252603 254.00011921 33.26330256 C252.23005057 35.0413057 250.45297111 36.81212483 248.67578125 38.58300781 C247.4004948 39.86100607 246.12563384 41.13942903 244.85116577 42.41824341 C241.39723411 45.8812768 237.93702529 49.33797323 234.4753685 52.79328251 C230.85208217 56.4114996 227.23368451 60.03460032 223.61450195 63.65692139 C217.53858702 69.73647233 211.4584728 75.81179967 205.37597656 81.88476562 C198.34215055 88.90769802 191.3155717 95.9378196 184.29269505 102.97169995 C178.26146178 109.01200479 172.22634522 115.04840886 166.18795681 121.08156085 C162.58193769 124.68446083 158.97728618 128.28870115 155.37612915 131.89646149 C151.99240426 135.28595763 148.60383583 138.67053532 145.21144485 142.05135727 C143.96648347 143.29367133 142.72322613 144.53769573 141.48179245 145.783535 C139.78890715 147.48187393 138.09000047 149.17395036 136.3894043 150.86456299 C135.65223915 151.6084203 135.65223915 151.6084203 134.90018177 152.36730504 C130.86027553 156.36124068 127.89311256 158.28514783 122.1875 158.375 C121.37667969 158.40335938 120.56585938 158.43171875 119.73046875 158.4609375 C113.36897845 157.38703785 108.74626037 153.12184742 104.31903076 148.69998169 C103.79247178 148.17810268 103.2659128 147.65622368 102.72339749 147.11853015 C100.97607574 145.38309167 99.23957702 143.63722851 97.50292969 141.89111328 C96.24631659 140.63856879 94.98906694 139.38666264 93.73123169 138.13534546 C90.32782513 134.7455824 86.9339369 131.34643814 83.5421133 127.94508982 C79.98726346 124.38262974 76.42508282 120.82751199 72.86407471 117.27120972 C66.88704865 111.29963651 60.91636455 105.32177704 54.94921875 99.34033203 C48.05369686 92.42847713 41.14742402 85.52750602 34.23548198 78.63207448 C28.29605036 72.70626215 22.36249173 66.77461679 16.4337914 60.83806789 C12.89505846 57.29466187 9.35433923 53.75330457 5.80831146 50.21719742 C2.47560995 46.89316992 -0.84965171 43.56187374 -4.16934586 40.22485733 C-5.38779626 39.00244478 -6.60879828 37.78256943 -7.8325386 36.56545258 C-9.50439228 34.90181473 -11.16670345 33.22918058 -12.82696533 31.5539856 C-13.75902424 30.62079561 -14.69108315 29.68760563 -15.65138626 28.72613716 C-20.13321566 23.52388467 -21.57986627 19.12243191 -21.34765625 12.3984375 C-20.63452443 7.47862919 -17.95561769 4.88569445 -14.4375 1.625 C-9.65638538 -0.63516327 -5.17047527 -1.26208452 0 0 Z " fill="#888888" transform="translate(132,206)"/>
</svg>
